# xmcd
#
# Track frame offsets:
#	150
#	24156
#	45767
#	60205
#	79092
#	98607
#	119767
#	142777
#	170277
#	190341
#	217340
#	231274
#	245386
#
# Disc length: 3545 seconds
#
# Revision: 1
# Processed by: cddbd v1.5.1PL0 Copyright (c) Steve Scherf et al.
# Submitted via: EasyCDDAExtractor 7.0.6.1
#
DISCID=a00dd70d
DTITLE=Asa Broomhall - Outside
DYEAR=2005
DGENRE=Folk-Rock
TTITLE0=The Hardest Lesson
TTITLE1=The Return
TTITLE2=My Time With You
TTITLE3=Down To The River
TTITLE4=In The Rain
TTITLE5=Wind River
TTITLE6=Going Down
TTITLE7=Twice Shy
TTITLE8=One Of These Days
TTITLE9=Catfish Blues
TTITLE10=Winter's Cold Without Her
TTITLE11=Today Blues
TTITLE12=Old Ceylon Road
EXTD=
EXTT0=
EXTT1=
EXTT2=
EXTT3=
EXTT4=
EXTT5=
EXTT6=
EXTT7=
EXTT8=
EXTT9=
EXTT10=
EXTT11=
EXTT12=
PLAYORDER=
